<svg id="Layer_2" data-name="Layer 2" xmlns="http://www.w3.org/2000/svg" width="136.5" height="106.208" viewBox="0 0 136.5 106.208">
  <g id="Layer_1" data-name="Layer 1">
    <rect id="Rectangle_1902" data-name="Rectangle 1902" width="136.5" height="106.207" fill="#7c7d7d" opacity="0"/>
    <path id="Path_26739" data-name="Path 26739" d="M135.712,320.682v5.428H133.18v-12.1h2.533V318.6h4.717V314.01h2.535v12.1h-2.535v-5.428Z" transform="translate(-95.156 -224.356)" fill="#007c9d"/>
    <path id="Path_26740" data-name="Path 26740" d="M178.649,312.89c1.6,0,5.819.691,5.819,6.367s-4.214,6.373-5.819,6.373-5.819-.691-5.819-6.373,4.22-6.367,5.819-6.367m0,10.592c1.365,0,3.286-.834,3.286-4.225s-1.922-4.228-3.286-4.228-3.289.856-3.289,4.228,1.921,4.225,3.289,4.225" transform="translate(-123.485 -223.556)" fill="#007c9d"/>
    <path id="Path_26741" data-name="Path 26741" d="M221.444,321.587c0,.674.351,1.95,2.57,1.95,1.2,0,2.532-.285,2.532-1.565,0-.942-.914-1.2-2.2-1.5l-1.3-.3c-1.959-.46-3.843-.894-3.843-3.557,0-1.348.722-3.726,4.648-3.726,3.712,0,4.711,2.427,4.725,3.909h-2.43c-.066-.54-.265-1.819-2.475-1.819-.962,0-2.11.357-2.11,1.448,0,.945.779,1.142,1.279,1.268l2.958.725c1.647.4,3.166,1.073,3.166,3.246,0,3.64-3.712,3.963-4.777,3.963-4.411,0-5.173-2.541-5.173-4.043Z" transform="translate(-156.487 -223.556)" fill="#007c9d"/>
    <path id="Path_26742" data-name="Path 26742" d="M261.755,326.1H259.22V314h5.533a3.538,3.538,0,0,1,3.76,3.877,3.7,3.7,0,0,1-3.863,3.857h-2.9V326.1Zm2.341-6.453c1.887,0,1.887-1.345,1.887-1.884,0-1.182-.662-1.667-2.224-1.667h-2v3.552Z" transform="translate(-185.21 -224.349)" fill="#007c9d"/>
    <path id="Path_26743" data-name="Path 26743" d="M299.69,326.107h-2.53v-12.1h2.53v12.1Z" transform="translate(-212.317 -224.356)" fill="#007c9d"/>
    <path id="Path_26744" data-name="Path 26744" d="M317.6,326.107h-2.532v-9.956H311.42V314.01h9.842v2.141H317.6v9.956Z" transform="translate(-222.506 -224.356)" fill="#007c9d"/>
    <path id="Path_26745" data-name="Path 26745" d="M350.6,326.1H347.94l4.317-12.1h2.924l4.263,12.1h-2.755l-.768-2.5h-4.471l-.857,2.5Zm1.513-4.582h3.092l-1.5-4.782h-.043l-1.553,4.782Z" transform="translate(-248.599 -224.349)" fill="#007c9d"/>
    <path id="Path_26746" data-name="Path 26746" d="M396.152,323.92h6.016v2.187H393.62v-12.1h2.532v9.91Z" transform="translate(-281.237 -224.356)" fill="#007c9d"/>
    <path id="Path_26747" data-name="Path 26747" d="M431.388,321.587c.017.674.357,1.95,2.57,1.95,1.2,0,2.535-.285,2.535-1.565,0-.942-.914-1.2-2.2-1.5l-1.3-.3c-1.95-.46-3.843-.894-3.843-3.557,0-1.348.728-3.726,4.654-3.726,3.712,0,4.708,2.427,4.722,3.909H436.1c-.074-.54-.286-1.819-2.487-1.819-.956,0-2.1.357-2.1,1.448,0,.945.771,1.142,1.279,1.268l2.952.725c1.656.4,3.172,1.073,3.172,3.246,0,3.64-3.712,3.963-4.771,3.963-4.423,0-5.179-2.541-5.179-4.043Z" transform="translate(-306.494 -223.556)" fill="#007c9d"/>
    <path id="Path_26748" data-name="Path 26748" d="M22.229,198.84l-10,27.74h5.85l2.079-6.176h9.879l2,6.181h6.033L28.184,198.84Zm-.571,17.019L25.1,205.678h.071l3.335,10.181Zm34.513-6.644a8.209,8.209,0,0,0-2.7-2.37,8.024,8.024,0,0,0-3.894-.888,7.264,7.264,0,0,0-3.258.731,5.887,5.887,0,0,0-2.441,2.37H43.8v-2.57H38.811v33.188h5.262V224.1h.069a6.253,6.253,0,0,0,2.464,2.236,7.137,7.137,0,0,0,3.275.757,7.632,7.632,0,0,0,3.686-.857,7.883,7.883,0,0,0,2.627-2.284,10.3,10.3,0,0,0,1.573-3.306,14.4,14.4,0,0,0,.517-3.883,16.014,16.014,0,0,0-.517-4.1,10.316,10.316,0,0,0-1.59-3.426M52.8,218.98a5.924,5.924,0,0,1-.757,2.044,4.263,4.263,0,0,1-1.4,1.428,4.568,4.568,0,0,1-4.32,0,4.165,4.165,0,0,1-1.428-1.428,6.381,6.381,0,0,1-.782-2.044,11.706,11.706,0,0,1-.237-2.367A12.849,12.849,0,0,1,44.1,214.2a6.247,6.247,0,0,1,.757-2.056,4.474,4.474,0,0,1,1.408-1.462,3.931,3.931,0,0,1,2.17-.571,3.86,3.86,0,0,1,2.127.571,4.631,4.631,0,0,1,1.428,1.482,6.7,6.7,0,0,1,.794,2.073,11.826,11.826,0,0,1,.24,2.375,12.339,12.339,0,0,1-.226,2.367m23.737-10.119a8.9,8.9,0,0,0-3.141-2.138,10.589,10.589,0,0,0-4.089-.751,10.455,10.455,0,0,0-4.074.751,9.02,9.02,0,0,0-3.112,2.138,9.479,9.479,0,0,0-2,3.338,13,13,0,0,0-.705,4.377,12.8,12.8,0,0,0,.717,4.337,9.519,9.519,0,0,0,2,3.323,8.742,8.742,0,0,0,3.112,2.118,10.723,10.723,0,0,0,4.074.734,10.849,10.849,0,0,0,4.089-.734,8.634,8.634,0,0,0,3.141-2.118,9.519,9.519,0,0,0,2-3.323,12.726,12.726,0,0,0,.717-4.351,12.926,12.926,0,0,0-.705-4.377,9.479,9.479,0,0,0-2-3.338m-2.775,10.064a6.422,6.422,0,0,1-.759,2.059,4.089,4.089,0,0,1-1.448,1.456,4.266,4.266,0,0,1-2.236.542,4.206,4.206,0,0,1-2.227-.542,4.112,4.112,0,0,1-1.428-1.456,6.428,6.428,0,0,1-.762-2.059,12.343,12.343,0,0,1-.22-2.35,12.656,12.656,0,0,1,.22-2.375,6.19,6.19,0,0,1,.762-2.056,4.4,4.4,0,0,1,1.428-1.462,4.105,4.105,0,0,1,2.227-.571,4.163,4.163,0,0,1,2.236.571,4.374,4.374,0,0,1,1.448,1.462,6.187,6.187,0,0,1,.759,2.056A12.662,12.662,0,0,1,74,216.562a12.346,12.346,0,0,1-.223,2.35m6.981,7.669H86.02V198.84H80.761Zm8.628,0h5.259V198.84H89.39v27.74Zm25.887-14.4a9.451,9.451,0,0,0-2-3.338,8.879,8.879,0,0,0-3.124-2.138,10.634,10.634,0,0,0-4.091-.751,10.512,10.512,0,0,0-4.077.751,8.98,8.98,0,0,0-3.109,2.138,9.528,9.528,0,0,0-2,3.338,12.847,12.847,0,0,0-.7,4.377,12.66,12.66,0,0,0,.7,4.351,9.568,9.568,0,0,0,2,3.323,8.7,8.7,0,0,0,3.109,2.118,10.781,10.781,0,0,0,4.077.734,10.909,10.909,0,0,0,4.091-.734,8.614,8.614,0,0,0,3.124-2.118,9.491,9.491,0,0,0,2-3.323,12.728,12.728,0,0,0,.7-4.351,12.925,12.925,0,0,0-.7-4.377m-4.782,6.732a6.354,6.354,0,0,1-.757,2.059,4.1,4.1,0,0,1-1.442,1.456,4.283,4.283,0,0,1-2.238.542,4.206,4.206,0,0,1-2.227-.543,4.143,4.143,0,0,1-1.428-1.456,6.419,6.419,0,0,1-.757-2.059,12.342,12.342,0,0,1-.22-2.35,12.659,12.659,0,0,1,.22-2.376,6.184,6.184,0,0,1,.757-2.056,4.44,4.44,0,0,1,1.428-1.462,4.105,4.105,0,0,1,2.227-.571,4.18,4.18,0,0,1,2.238.571,4.382,4.382,0,0,1,1.442,1.462,6.122,6.122,0,0,1,.757,2.056,12.43,12.43,0,0,1,.228,2.375,12.12,12.12,0,0,1-.228,2.35" transform="translate(-8.738 -142.069)" fill="#007c9d"/>
    <path id="Path_26749" data-name="Path 26749" d="M85.34,111.308l3.118,2.555,3.118-2.544v-7.686H85.34Zm6.55-16.046h-7.46V93.4l-17.036,20.14h9.016l8.879-10.752h6.6v-1.031h0V95.81h0v-.548Zm-6.552-.857h6.238V87.953l3.292-5.348H81.654l3.683,5.348ZM66.245,71.85H49v31.52h8.129L75.855,81.82l-9.61-9.967ZM60.069,82.791H57.385V85.6H55.027V82.785H52.346v-2.47h2.681V77.509h2.358v2.812h2.684v2.47ZM73.34,101.946l1.313-4.834h1.756V83.644L58.193,104.607v9.239l9.1-10.473H71.5a1.733,1.733,0,0,0,1.839-1.428m1.008-11.42-1.342,1.41-1.339-1.41Z" transform="translate(-35.01 -51.336)" fill="#007c9d"/>
    <path id="Path_26750" data-name="Path 26750" d="M131.025,18.914a1.65,1.65,0,0,1-.2-.069c-10.535-2.855-11.178-8.08-10.9-9.956a17.668,17.668,0,0,0,.1,8.908c1.259,1.325,5.459,3.261,9.51,3.686.44.057.857.148,1.285.228,10.612,2.1,11.5,11.183,7.646,15.58.417-.857,4.874-10.278-6.05-12.22-.542-.086-1.042-.188-1.5-.286-7.732-1.5-8.428-2.712-8.811-2.855-.3,1.39,1.607,8.911,8.811,9.856h.057c6.761.857,7.423,4.374,7.46,5.516h0v.026l.017-.034a9.182,9.182,0,0,0,3.3-6.949v-.771c-.18-4.474-3.189-9.233-10.732-10.661" transform="translate(-85.315 -6.352)" fill="#fdb913"/>
  </g>
</svg>
